<?xml version="1.0"?><svg version="1.2" baseProfile="tiny-ps" viewBox="0 0 169 169" xmlns="http://www.w3.org/2000/svg" xmlns:xlink="http://www.w3.org/1999/xlink"><title>streamrolling.com-1</title><g><g fill="#cbeaf1" transform="matrix(.1 0 0 -.1 0 169)"><path d="M0 845V0h1690v1690H0V845z"/></g><g fill="#91bbcb" transform="matrix(.1 0 0 -.1 0 169)"><path d="M0 845V0h1690v1690H0V845zm1013 536c86-25 164-70 230-132l52-50-65 51c-74 58-160 101-240 121l-55 14-105-1H725l-78-27-78-27-64-41-65-41-56-61-55-62-35-70-34-70-16-75-16-75 5-85 5-85-8 25c-4 14-8 65-9 114l-1 88 16 62c9 33 32 92 52 131l37 69 56 61 57 60 56 34c73 43 160 78 227 90l54 10 85-4 85-4 68-20zm17-45c38-13 89-35 113-49 53-32 147-115 147-130v-12l-10 15c-5 8-12 12-15 8-3-3-18 5-32 18l-25 23-44 7-44 6-26-6-27-7-33-33-32-32-12-42-11-42 10-36c6-20 18-45 27-55 25-27 9-23-34 8-20 15-39 28-41 30s8 35 23 73c16 39 26 74 22 77-5 5-56-97-56-112 0-3-18-43-41-91-22-47-38-88-35-91 11-11 32 17 50 66l18 51h13c7 0 18-6 24-14l11-13-15-13-15-12-1 8c0 5-4-1-10-14l-9-23-9 5-9 6-6-24-6-25-20-6-20-6 6-11 7-11-12 7-12 8-25-6-25-7-9-22-9-22v17l-1 17 23 22 22 21-21-10-21-11-8 7-8 7 7-12 6-12-10-6-10-6v32l-9-5-9-6-132 51c-73 27-135 48-138 45s11-13 31-21c21-8 53-22 73-30l35-15-5-17c-3-10-7-39-8-65l-3-46-7 4c-4 3-11-4-17-13-14-24-14-11 0 24l10 28-6 32-6 33-46 31-46 32-49 5-48 5-25-17c-32-21-55-57-65-102l-8-37 9-26c6-14 25-41 42-59l32-33-33 16-32 17 6 10 7 11-11-7c-7-4-12-15-13-24v-17l-10 25-11 25v90l-1 90 17 60c10 33 34 90 53 127l35 68 71 66 70 66 72 34c39 19 100 41 136 49l64 15 93-5 93-5 69-24zm241-73 14-18-17 14c-10 7-18 15-18 17 0 8 8 3 21-13zm60-50 14-18-17 14c-17 13-22 21-14 21 2 0 10-8 17-17zm-153-268c-2-3-63-28-134-56s-135-53-141-56l-13-5v19l63 22c34 12 71 26 82 32 53 25 156 57 143 44zm64-16c-24-4-59-18-79-30l-35-22-19-31c-24-39-25-25-1 16l17 31 50 23 50 24 30-1 30-1-43-9zm185-61-5-13-1 19c-1 11 2 17 5 13 3-3 4-12 1-19zm-766-23 34-14-26-1h-27l-12-15-12-14 7-20 6-19-11-7-10-6v49c0 41 5 62 16 62 1 0 17-7 35-15zm770-114-10-78-21-55c-11-31-38-82-59-114l-37-59-58-52-57-52-72-36c-40-19-101-42-137-51l-65-16-110 4-110 5-70 27c-38 15-74 32-80 37-5 6 12 1 40-11 27-12 77-28 110-36l60-14h152l77 20 77 20 62 32 62 32 72 72 73 72 35 74 35 74 15 78c8 43 16 92 16 109l1 32 5-18c3-10 0-54-6-96zm-693 64c-3-3-9 2-12 12l-7 18 12-12c7-7 10-15 7-18zm2-24c0-5-28-20-62-35-105-43-222-86-225-82-5 5 132 66 150 66 9 0 18 4 22 9 3 5 19 12 35 16 17 4 30 10 30 15s10 11 23 13c12 2 23 5 25 6 1 0 2-3 2-8zm-73-7c-3-3-12-4-19-1l-13 5 19 1c11 1 17-2 13-5zm89-110c-19-38-35-66-36-62-1 13 61 141 66 135 3-3-11-36-30-73zm250 8-18-17 13 22c7 12 15 20 18 17 3-2-3-12-13-22zm-396-29 15-15-22 11c-30 15-87 14-127-3l-33-14-21-27c-12-15-22-23-22-17s10 22 23 36l22 26 40 15 40 14 35-5 35-5 15-16zm495 10c-11-2-29-6-41-8-11-3-33-17-49-32l-28-28 5 15c2 8 19 25 38 38l33 22 31-1 31-1-20-5zm-116-6c-2-1-13-9-24-17l-20-15 14 18c7 9 18 17 24 17s8-1 6-3zm-146-64c-7-2-19-2-25 0l-13 5h50l-12-5zm-8-40c-16-2-41-6-54-9l-24-5-30-32-30-32 12 23c7 13 27 32 44 42l32 20 40-2 40-1-30-4zm-72 788-42-19-15-31-16-30v-36c0-46 21-94 55-125l27-25h107l32 30 32 30 19 42 19 43-6 32c-9 45-32 71-83 91-54 22-77 21-129-2zm-289-127-31-15-21-38-22-39v-83l16-24 15-23 40-16c22-9 55-16 75-16h35l29 15c16 8 36 25 44 37l16 22v42c0 22-5 55-11 73l-11 31-42 25-43 25h-29c-16 0-43-7-60-16zm202-71c4-15 16-48 26-73l19-45-23-15c-32-21-78-72-78-87v-13l51 53 50 52 27-65 28-65h29v30l20 5 20 6 3 42 3 42-16 6-15 6-15-12-15-12v-27l-1-26-19 35-18 35 15 9 15 8 59-4 59-4v7c0 5-16 11-36 15l-37 7-42-10-42-10-28 64c-15 35-31 66-37 69l-9 6 7-29zm144-263c0-6 7-10 15-10s15 2 15 4-7 6-15 10l-15 5v-9z"/></g><g fill="#6390a4" transform="matrix(.1 0 0 -.1 0 169)"><path d="M0 845V0h1690v1690H0V845zm1020 791c0-3-4-8-10-11l-10-6v10c0 6 5 11 10 11 6 0 10-2 10-4zm55-66 6-10-15 6c-18 7-21 14-7 14 6 0 13-4 16-10zm56-17 14-18-17 14c-10 7-18 15-18 17 0 8 8 3 21-13zm-321-38c-7-8-17-15-23-15h-11l20 15c25 19 30 19 14 0zm400 1c0-2-7-7-16-10l-15-6 6 10c6 10 25 14 25 6zm55-6 6-10-15 6c-18 7-21 14-7 14 6 0 13-4 16-10zm25-27c0-5-5-15-10-23l-10-15v45h10c6 0 10-3 10-7zm142-80c10-9 18-21 18-27s-7 0-16 12l-15 22h-48l-15-16c-9-8-16-12-16-7 0 17 24 33 49 33h24l19-17zm-452-9c66-15 143-45 239-92l54-26 61-61c34-34 70-77 80-96l19-34-94 96c-52 53-103 101-114 107l-21 10 71-71 70-72 32-65c18-36 35-82 38-103l6-38 9 6 9 5 7-11 7-12-9 6-9 5V685l-17-55c-10-30-34-84-55-120l-38-64-62-62-61-61-84-42-84-41-70-15c-38-8-96-15-130-15h-61l-79 20c-43 11-108 35-144 52-36 18-71 32-77 31l-13-1 6 9 6 10-31 10-31 11 5 8c2 4-8 18-23 31l-26 24 9-15c6-9-2-2-17 15-44 49-97 146-119 215l-20 65-5 75-6 75 16 75 16 75 36 75 37 75 81 81 81 81 76 36c41 20 102 43 135 51l59 14 85 1 85 1 65-16zm381-61 14-18-17 14c-10 7-18 15-18 17 0 8 8 3 21-13zm161-10 18-16v-44l-19-17-20-18-18 5-18 5 21 1c26 1 44 20 44 46 0 12-5 26-12 33s-21 12-33 12c-41 0-60-49-32-80l12-14-17 13-18 13v57l18 10c25 15 53 13 74-6zm67-95c-32-20-89-47-89-44 0 8 84 55 89 51 2-3 2-6 0-7zm29-33c-3-3-9 2-12 12l-7 18 12-12c7-7 10-15 7-18zm40-86-3-23-33-19c-18-11-35-17-38-15-3 3 11 13 31 22l35 17v18c0 10-8 25-18 34l-19 17-7-7-7-7 6 16 6 16 25-23 26-24-4-22zm-82 26c-11-8-25-15-30-15-6 1 0 7 14 15 32 19 40 18 16 0zm-119-262-5-18v60l5-12c2-7 2-21 0-30zm10-55-5-13-1 19c-1 11 2 17 5 13 3-3 4-12 1-19zm-10-130-5-13-1 19c-1 11 2 17 5 13 3-3 4-12 1-19zM344 278c-1-13-3-54-3-93l-1-70-10 15-10 15v106l-21 7c-11 5-20 11-20 15 1 4-2 7-6 6-5-1-7-5-5-10 1-5-2-9-8-9-14 0-12 27 3 33 6 3 28 6 48 6l36 1-3-22zm331 1084c-87-26-143-54-205-101-130-98-210-236-231-402l-9-75 15-85 14-84 37-72c20-39 45-80 56-89l19-18-36 60c-20 32-45 88-56 124l-21 65-5 85-5 85 16 65c9 36 32 98 52 138l35 73 69 69 69 69 73 35c40 20 100 43 133 51l59 15h171l74-20c88-25 127-44 207-103l60-44 45-60c24-33 50-69 57-79 7-11 1 4-13 32l-26 51-52 53c-65 67-150 122-230 150l-62 23-125 3-125 4-60-18zm74-55c-18-12-40-34-47-47l-13-25 5-39 5-39 18-26c11-13 30-32 44-42l24-17 43-5 42-5-7 11-6 10 16-6 16-6 23 20 23 20-30-17-30-18 24 27c13 14 27 24 32 22 4-3 11 0 15 6l7 12-11-7c-15-9-15-9 4 39l15 40-5-35-6-35 11 18 11 19-12 41c-13 48-25 66-60 90l-24 17h-93l-34-23zm321-109-45-23-17-35-18-35v-77l17-29 17-29 32-15c18-8 45-15 61-14h28l-20 9-20 10 35-6 35-5 35 23 35 23 18 37 18 37-11 41c-6 23-13 40-16 37-3-2-20 11-38 29l-34 34h-20c-11 0-26 2-34 5l-13 5-45-22zm190-146c0-5-7-17-15-28l-15-19 11 28c12 27 19 34 19 19zm-55-72c-16-11-34-20-40-20-12 0 46 38 60 39 6 1-3-8-20-19zm-761 185-33-36-7-34-6-35 11-29 12-28 37-21 37-20 57-4 56-3 25 24 26 23-4 60-4 60-17 27c-10 14-25 31-33 38l-16 12-54 1h-54l-33-35zm15-15c-13-16-25-28-27-25-5 5 37 55 45 55 2 0-6-13-18-30zm171-165c-13-14-27-25-31-25s4 13 19 28 29 26 31 25c3-2-6-14-19-28zm295 42c-26-61-54-122-62-134l-13-23h25l53 131c29 72 51 133 49 135s-25-47-52-109zm-57-14c7-3 16-2 19 1 4 3-2 6-13 5l-19-1 13-5zm-163-23-6-10 15 6c18 7 21 14 7 14-6 0-13-4-16-10zm95-39v-40l10-6 11-7 15 13 15 12-3 31-3 31-22 3-23 3v-40zm141 36c2-1 13-9 24-17l20-15-14 18c-7 9-18 17-24 17s-8-1-6-3zm-290-42c-17-20-31-41-31-48l1-12 11 20c6 11 22 32 36 48 14 15 23 27 20 27s-20-16-37-35zm340 10c0-13 38-59 44-54 2 3-7 18-20 34-13 17-24 26-24 20zm64-65c-66-27-129-51-140-55l-20-6 11-5c6-3 32 5 58 16s56 20 66 20h18l4-37c3-21 1-53-3-70l-7-33h9c4 0 11 17 15 37l7 37-10 38-10 38 6 5c4 2 33 13 64 25s59 26 62 31l6 9-8-1c-4 0-62-23-128-49zm-560 29c11-5 41-17 67-28l46-20-4-23-5-23 10 23 10 22 57-25c62-28 74-30 74-15v10h-18c-10 0-68 20-130 45-61 25-115 45-119 44-5 0 1-4 12-10zm281-2c3-10 9-15 12-12s0 11-7 18l-12 12 7-18zm442 3c-15-4-43-17-61-29l-34-21-11-25c-15-33-15-80-1-107l11-21-13-9-14-10 18 6 17 5v-21l17 6 17 7-7-7-8-8 23-13 23-12-14-1c-15 0-226 75-253 90l-17 10-5-8-5-8 65-24c35-13 64-28 64-32 0-12-88-98-100-98h-11l2 13c1 6-9 36-23 65l-25 52-11-13-11-13 28-56 27-57-14-6c-7-3-40-5-72-5h-59l-6 9-5 10 25 57 25 57-6 6c-4 3-9 2-11-4-2-5-32-75-67-155l-64-145-34-20-33-20 36 37 36 36 10 39 10 40-5 29-5 29-33 28-33 28-36 6-35 6-46-18-46-17-19-32-19-31v-81l17-24c9-14 25-31 35-38l18-13-5-9-5-8 30-25c17-14 59-40 94-57l64-32 92-15 93-16 95 16 95 15 85 42 85 42 62 63 62 62 41 80 40 81 12 73 12 73-6 59c-3 32-9 63-12 68l-6 10-11-10-12-9-40 15c-54 20-85 24-117 13zm152-203c0-2-10-12-22-23l-23-19 19 23c18 21 26 27 26 19zm-305-45c-3-3-12-7-20-8l-14-2 6 13 5 14 14-6c8-3 12-8 9-11zm232-8c-3-3-12-4-19-1l-13 5 19 1c11 1 17-2 13-5zm-153-15c40-11 90-38 83-45-2-2-19 3-37 12s-51 19-74 21l-41 4-33-21-33-20-15-37-16-37 6-30 6-31-11 17-10 17 3 50 3 49 8-5c4-2 10 3 13 12 7 17 70 54 94 55 8 0 33-5 54-11zm-329-96c44-6 100-36 108-58l6-14-37 26-37 25-45-5-44-5-33-36-34-36-6-30c-3-17-9-30-14-30-15 0-10 23 20 82l29 57 8-7 7-7-6 12-7 11 6 17 7 16 16-6c9-4 34-9 56-12zm92-5-5-13-1 19c-1 11 2 17 5 13 3-3 4-12 1-19zM640 447c0-2-12-14-27-28l-28-24 24 28c23 25 31 32 31 24zm580-32c-12-13-38-29-56-35l-34-11-22 4-23 4 28 2c36 1 88 24 106 44 7 10 16 17 19 17s-5-11-18-25zm-663-27-29-10-21 10-22 11h50l50-1-28-10zm-62-18 6-10h-10c-5 0-13 5-16 10l-6 10h10c5 0 13-4 16-10zm431-69c-10-11-30-24-46-31l-28-11-33 4-34 4 41 1 41 2 34 24c42 30 47 31 25 7zM344 902l-31-20-17-41-16-42 11-44 11-43 26-24 26-23-13 17-12 17 31-12 30-12-17-6-17-6h98l-19 7-19 7 27 7 28 7 11-7 11-7-6 10-7 11 28 17 27 18-20-24-19-24 29 28 30 27v79l-21 27c-11 15-32 36-46 47l-26 19-43 5-44 4-31-19zm436-22c0-5 5-10 10-10 6 0 10 5 10 10 0 6-4 10-10 10-5 0-10-4-10-10zm20-58-23-18 7-21 7-21 30-4 29-5 11 13c15 18 8 44-17 61l-21 14-23-19zm160 0c-14-2-29-8-34-12l-9-9 13-16 12-15h23c13 0 30 3 39 6l16 6v36l-17 4c-10 2-29 2-43 0zm-370-33c0-19 5-41 10-49l10-15-6 45c-8 56-14 64-14 19zm36 16-6-16 24-11 25-11 26 7 26 7-3 17-3 17-41 3-41 3-7-16zm-29-103c-145-58-181-81-57-35l74 27 4-13c7-21 73-91 86-91l11 1-28 20c-15 12-35 35-43 51l-16 30 9 8c4 4 32 15 61 26 28 10 52 22 52 26 0 12-2 11-153-50zm203-21c-5-11-10-29-10-40v-20l18-10 19-10 11 11c16 16 15 61 0 76-17 17-26 15-38-7zm189-8-14-18 18 14c9 7 17 15 17 17 0 8-8 3-21-13zM300 280c0-5 7-10 15-10s15 5 15 10c0 6-7 10-15 10s-15-4-15-10z"/></g><g fill="#3c6277" transform="matrix(.1 0 0 -.1 0 169)"><path d="M0 845V0h1690v1690H0V845zm880 747v-68l13-13 12-13-20 4-20 3-3 78-3 77h21v-68zm63-8-6-66 14-8 13-9-6-7-7-6-16 5-15 6v44c0 56 10 107 21 107h8l-6-66zm77 46c0-5-4-10-9-10-6 0-13 5-16 10l-6 10h15c9 0 16-4 16-10zm-208-37 18-16v-55l-16-12-15-13h-62l-13 18c-19 25-18 55 3 77l16 18h50l19-17zm-122-2c0-5-10-11-22-13l-23-3 2-53 2-53-9 6c-4 3-11 20-15 38-4 17-8 39-11 48l-4 15 27 11c36 14 53 15 53 4zm320-8c0-29-20-93-29-93h-8l8 43c4 23 8 48 9 55 0 6 5 12 10 12h10v-17zm60-2v-9l18 5 18 4 24-19 23-19-7-34c-3-19-10-41-16-49l-9-14-6 6-7 7 13 35 13 35-13 15-13 16h-40l-15-40c-9-22-20-40-26-40h-9l5 14c3 8 11 32 18 55 11 36 29 56 29 32zm-504-29c7-4 19-24 27-44l16-38-9-5-8-5-16 40-16 40h-41l-5-15-6-15 12-31c19-46 4-46-20 0-22 45-31 49-51 25l-13-15 13-35c7-20 11-38 8-41-6-5-30 39-41 75l-7 22h15c9 0 16 5 16 10v10h51l15 15c17 16 42 19 60 7zm694-37c7-8 19-15 26-15 20 0 18-12-11-67-38-71-64-80-112-39l-28 24 8 8 7 8 16-23 16-22 26 3 25 3 5 13 4 12h-52l-15 24-16 25 12 23c15 29 28 38 55 38h22l12-15zm-856-87 26-33-13-4c-6-2-18-12-25-23l-13-18h-47l-6 17-7 16 26 27c14 14 25 29 25 33 0 13-38 7-50-8-7-8-17-15-23-15h-10l18 20 18 20h56l25-32zm1024-14c12-8 22-22 22-30 0-20-13-17-28 6l-12 20h-19c-10 0-24-7-31-15l-12-14 4-18 3-18 23-10c12-5 22-13 22-17 0-13-24-9-48 8l-22 15v49l20 20c24 24 48 25 78 4zm-435-20c32-8 96-30 143-49l86-35 49-36c27-19 72-61 99-92l51-57 34-70c19-38 42-97 50-130l15-59-1-66-2-65-8 85c-9 108-36 193-63 203l-12 5 19-77 19-76-7-105c-3-58-7-119-8-137-1-17-5-29-8-27-4 2-24-31-45-74l-38-77-80-81-81-81-77-37-77-37-68-13c-37-8-94-16-125-18l-57-5 5 9 5 8-27-10-26-10 5 14 6 14-22 6c-12 3-30 6-40 6h-18l7-12 7-11-12 7-11 7 5 10 6 9h-15c-8 0-17-6-19-12l-5-13-1 18c-1 19-21 24-21 5v-12l-15 20-14 19-1-13v-13l-10 6c-6 4-8 10-5 15l5 8-49 15-50 14-50 37-50 37-47 62c-55 73-97 159-119 242l-15 59v151l15 63c41 175 160 324 325 407 139 70 290 87 443 49zm307-9c0-8-4-15-9-15-13 0-22 16-14 24 11 11 23 6 23-9zm-1015-9 19-14-32-27c-37-31-41-45-12-45h19l21 22c11 12 20 18 20 12 0-15-14-30-37-43l-23-12-31 16-30 16 3 32 3 32 25 12c31 16 32 16 55-1zm1220-36 25-10 10-26 11-27-16-23-15-24h-69l-15 22c-9 12-16 30-16 39v18l26 20c31 25 26 24 59 11zm-1347-60-13-22 33-27c47-40 39-47-12-10l-45 31 21 29c25 33 36 32 16-1zm1442-44c0-7 7-19 15-26s15-21 15-32v-19l14-5c19-7 28-32 20-56l-5-18-39-20-39-20-5 8-5 9 39 22 40 22v13c0 8-6 19-14 25l-14 12-41-21-41-20v9c0 5 16 19 35 31l35 22v13c0 8-8 18-17 24l-18 10-32-21c-18-11-38-18-45-16l-11 4 49 31c56 36 64 38 64 19zm-1494-31-5-15 24-16 25-16 20 5 20 5v-9c0-5-6-12-14-15l-14-5-32 16c-17 9-37 14-44 12l-12-5-11 25-12 24 20-6 19-6v10c0 6 5 11 11 11h11l-6-15zm-54-87c-7-7-12-22-12-35v-23h9c5 0 16 11 25 25l16 25h41l5-14 5-14-16-32c-20-40-29-35-13 8l12 31-7 8-8 7-25-27c-27-30-52-35-60-13l-5 14 16 32c9 18 19 29 23 26 3-4 0-12-6-18zm1425-590-5-13v50l5-12c2-7 2-19 0-25zm-56-71-12-12 7 18c3 10 9 15 12 12s0-11-7-18zm-127-179c-11-11-31-26-46-34l-26-14 3 18 2 17 17-3 16-3v30l22 16 23 15 3-10c2-6-4-20-14-32zm-886 1 3-17-24-5-23-6 10-60 10-60 20-3 21-3 3-17 3-17-23-5c-13-3-50-7-83-11l-61-6-1 19-2 19 27 12 26 12-11 7c-5 4-18 31-27 60l-18 52-27-5-28-5 1 23 1 22 15 7c8 4 53 6 100 5l85-2 3-16zm-218-19c0-11-2-20-4-20s-6 9-9 20l-5 20h9c5 0 9-9 9-20zm-35 0c-3-5-13-10-21-10h-15l6 10c3 6 13 10 21 10h15l-6-10zm1054-75 2-65h-19l1 65c1 36 5 65 8 65s7-29 8-65zM153 163c0-43 2-82 5-88 4-5 7-16 8-23l2-13-12 10c-7 6-15 9-17 7s-4 19-4 47c0 29-3 69-7 89l-7 37 17 4c9 3 17 5 17 6 0 0-1-34-2-76zm1181 52 5-15-31-35-31-36-21 6-21 6 14-9 14-10-20-10-20-11v30l39 35 39 35 10-6 9-6-1 8c-2 13 1 33 5 33 2 0 6-7 10-15zm-594-15c0-5-4-10-10-10-5 0-10 5-10 10 0 6 5 10 10 10 6 0 10-4 10-10zm465-100 6-10h-10c-6 0-11 5-11 10 0 6 2 10 4 10 3 0 8-4 11-10zM741 1576l-13-15 4-17c2-9 11-22 21-28l17-11 18 11 17 11v58l-26 3-26 3-12-15zm448-87-11-21 20-20 20-20 20 6c11 4 23 14 26 22l6 15-10 20-11 19h-48l-12-21zm-834-89-19-20 12-12 12-12 21 21 21 21-6 11c-10 16-21 14-41-9zm722-71c7-7 15-10 18-7s-2 9-12 12l-18 7 12-12zm-286-33-33-34-24 3-23 2 4-8c3-4 1-9-3-11-5-1-12-15-15-29l-7-26 23-44 22-44 36-19 37-20 41 12 40 13 27 34 26 35 6 45 5 45-17 26-18 26-33 14c-48 20-56 18-94-20zm12-100 6-14-15-6c-9-3-22-6-29-6h-13l3 18c2 9 4 18 4 20 1 1 10 2 20 2h19l5-14zm2-46c-3-5-11-10-16-10h-10l6 10c3 6 11 10 16 10h10l-6-10zm-400 48-50-53 53 50c28 27 52 51 52 52 0 8-9-1-55-49zm845 17c19-19 36-35 39-35s-10 16-29 35-36 35-39 35 10-16 29-35zm-192-21-28-15-20-39-20-39v-73l34-34 34-34h29c43 0 99 18 125 41l23 20-12 5c-7 3-13 10-13 16v10l13-11 14-11 6 7c4 3 7 25 7 47l-1 41-13 23c-7 13-26 32-42 43l-29 19h-40l-40-1-27-15zm-555-38-40-45 2-35 1-35-8 5-8 5-1-20c-1-12-2-26-3-33l-1-11 35-13c19-7 50-13 69-13l33-1 34 34 34 34v36c0 20-6 52-14 70l-14 33-23 17c-13 9-31 16-40 16h-17l-39-44zm97-31c-7-8-19-15-26-15h-14v-28l17-6 17-7 15 17 16 16-25-7-25-7 20 15 20 15 8-14 8-14-36-35c-20-18-44-40-53-46l-17-13 13 14c6 8 12 18 12 23v9l-17-13-18-14 13 17 13 17 13-5 13-5 6 15 6 15-22-2c-12-1-28-7-36-15-20-19-26-7-8 18 17 24 76 70 90 70h9l-12-15zm-277-27c-28-45-63-130-62-151 0-6 10 15 23 48 12 33 34 79 49 103 15 23 25 42 22 42-2 0-17-19-32-42zm593-93c-9-26-7-32 5-12 6 10 9 21 6 23-2 3-7-2-11-11zm313-12-14-18 18 14c9 7 17 15 17 17 0 8-8 3-21-13zm-422-10c-4-3-7-21-7-39v-32l15-6 15-5 11 20 11 21-6 24-6 24h-14c-7 0-16-3-19-7zm79-48c-9-26-7-32 5-12 6 10 9 21 6 23-2 3-7-2-11-11zm-635-21 1-19 5 13c3 7 2 16-1 19-3 4-6-2-5-13zm113-4c-11-4-33-22-47-40l-27-32v-86l20-23 20-24-10 29-11 30 7 53c8 65 20 77 19 20 0-51 12-137 20-146 4-3 28-6 55-6h49l28 21 28 20 18 37 19 37-19 38-18 37-45 23c-47 23-72 26-106 12zm821-4c-17-7-43-28-58-45l-27-33v-65l22-28 21-28 41-18 41-19h66l29 15 30 15 15 30 15 29v91l-28 31-29 32-54 4-54 3-30-14zm-320-17c-4-6-5-12-2-15 2-3 7 2 10 11 7 17 1 20-8 4zm-80-9-6-10h10c6 0 11 5 11 10 0 6-2 10-4 10-3 0-8-4-11-10zm-541-85-1-90 4 42c2 23 2 64 0 90l-3 48v-90zm553 29c-4-4-7-17-7-30v-22l16-6 15-6 20 11 20 10-3 22-3 22-25 3c-14 2-29 0-33-4zm-162-14-7-12 10-10 9-9 34 3 34 3v30l-37 3-36 3-7-11zm296-4-12-14 8-5c4-2 20-7 34-10l26-7 18 14 18 13-7 11-7 12h-67l-11-14zm454-68c-5-12-22-36-39-53l-31-29 25 15c26 17 66 76 57 85-3 3-8-5-12-18zm-605-49c-7-11-10-23-7-25 2-2 9 7 15 21 14 30 7 33-8 4zm-529-15 1-19 5 13c3 7 2 16-1 19-3 4-6-2-5-13zm556 10c-4-4-7-20-7-36v-29l16-6 16-6 9 14c5 8 8 25 7 39l-3 25-15 3c-9 1-19 0-23-4zm-309-56-38-10-25-30-25-30v-69l15-28 14-28 35-17c19-9 37-16 41-16h6l-6 11-7 10 20-12 21-13 28 10 27 9 23 34 23 34v92l-18 21c-34 43-66 50-134 32zm564 1-33-10-19-32-20-32v-33c0-18 6-48 14-67l14-34 31-15 30-16h43l43 1 23 13c13 7 32 26 43 42l19 29v82l-21 26-20 27-51 15c-29 8-54 15-57 14-3 0-21-5-39-10zm-320-24c-17-37-14-45 4-12 9 16 14 31 11 33-2 2-9-7-15-21zm520-95-2-45-19-29c-10-15-32-37-47-47-16-10-24-19-18-19s23 9 36 20c14 10 28 17 32 15 3-3 4-2 1 2-3 3 2 17 10 30l16 24-4 47-3 47-2-45zm-488 6-31-14-23-32-23-32-4-42-5-42 27-32 26-31 33-9c62-18 115-4 151 39l25 31v69l-14 27c-8 15-25 37-39 50l-24 23-34 4-34 5-31-14zm525-103-14-18 18 14c9 7 17 15 17 17 0 8-8 3-21-13zm-340-48c-4-16-9-39-13-50l-7-20 16 28 16 28-3 22-4 22-5-30zm-739 985-11-20 6-10 6-10 30 20c16 12 29 26 29 31v9h-49l-11-20zm1237-38c-22-25-21-38 5-56l21-15 17 9c10 5 21 17 24 26l6 17-16 18c-21 24-36 24-57 1zM380 280c0-5 5-10 10-10 6 0 10 5 10 10 0 6-4 10-10 10-5 0-10-4-10-10zm-150-11v-10l10 6c6 3 10 8 10 11 0 2-4 4-10 4-5 0-10-5-10-11zm170-165V89l10 6c6 3 10 10 10 16 0 5-4 9-10 9-5 0-10-7-10-16zm-80-4c0-5 5-10 10-10 6 0 10 5 10 10 0 6-4 10-10 10-5 0-10-4-10-10zm40-1V89l10 6c6 3 10 8 10 11 0 2-4 4-10 4-5 0-10-5-10-11zm-80-9c0-5 5-10 10-10 6 0 10 5 10 10 0 6-4 10-10 10-5 0-10-4-10-10z"/></g><g fill="#293e4b" transform="matrix(.1 0 0 -.1 0 169)"><path d="M0 845V0h1690v1690H0V845zm886 748-7-65 18-13 18-14-19-7-19-7-14 19-15 19 7 64c3 35 8 68 11 73l5 8 11-6 10-7-6-64zm62-3-5-70 8-6c5-3 9-9 9-15v-9h-38l-6 17-7 16 7 61c7 67 10 76 26 76h11l-5-70zm77 40v-15h-30l-3 18-4 19 19-4 18-3v-15zm-211-31 26-20v-49l-20-20-20-20h-59l-15 15c-8 8-17 24-21 35l-6 19 11 21c11 20 41 38 66 39 6 1 23-8 38-20zm-116-11c-3-7-13-15-24-16-10-2-23-7-27-12l-9-8 10-36 10-36-9-6c-15-9-19-2-34 56l-14 51 22 9c12 5 35 9 50 9l29 1-4-12zm316 4c3-5-1-30-8-57l-12-49-13-4-14-5 7 54c4 29 9 56 12 61 7 10 21 10 28 0zm92-12h24l14-23 15-22-11-43-10-42h-29l7 49 6 48-18 7-17 7-11-11c-6-6-16-25-22-42-6-18-16-34-24-36l-13-5 6 34c3 19 10 47 16 63l11 28 16-6c9-3 26-6 40-6zm-525-40c10-14 21-37 25-52l6-28h-30l-5 23c-4 12-13 31-20 42l-15 19-16-13-15-13 14-35c18-44 19-53 2-53h-14l-16 40-15 40h-33l-5-14-5-14 15-31c18-35 20-51 6-51-8 0-60 90-60 104 0 8 62 36 80 36 10 0 23 7 30 15l13 16 20-3 20-3 18-25zm680-19c13-10 29-20 36-22l12-4-21-45c-11-25-27-53-36-62l-15-18h-53l-22 16c-12 8-22 22-22 30 0 19 6 18 40-8l30-22 12 12 12 12h-17c-9 0-26 9-37 20l-20 20v49l26 20c33 26 45 26 75 2zm-857-82c33-38 32-48-5-78l-30-23-24 6-25 6v49l25 19 26 20-9 6-10 6-25-20c-30-24-37-25-37-6s39 46 66 46h22l26-31zm1036-34 24-25-11-11-11-11-14 21-13 21h-44l-11-19-10-20 16-15c8-9 22-16 30-16 16 0 19-16 4-25l-9-6-31 16c-16 8-30 20-30 24 0 5-2 16-5 23l-6 14 21 27 21 27h56l23-25zm-475 0c152-32 303-109 389-200 93-97 147-209 166-347l11-72-7-46c-3-25-12-70-19-100s-19-86-25-125l-11-70-28-69c-15-39-33-72-39-74l-11-3 11 29 11 28-8 30-8 29-4-18c-3-9-9-17-14-17h-10l5-9 6-9-14-11c-7-6-15-9-17-7-2 3-5-19-7-47l-3-52 23 23c28 25 40 28 32 7-3-8-11-13-17-12l-11 2-2-22c-3-46-94-130-190-175l-61-28-79-16-79-16-93 6-93 5-107 27-107 28H440l-115 1-55-14c-30-7-72-22-93-33-22-11-41-17-44-15-2 3-6 62-7 131l-3 125 56 18 56 17h90c50 0 102-3 117-7l28-7-79 77-78 78-41 85-41 85-16 80-17 80 7 60c10 93 33 174 73 250l37 70 75 76 76 76 84 41 85 41 70 15c39 8 97 15 130 15l60 1 70-15zm345-20v-15h-40v30h40v-15zm-1026-1c23-9 20-27-9-54-14-13-25-27-25-31v-7l20 5c11 3 25 14 31 25l11 20 11-11 11-11-24-25-23-25h-57l-20 20c-26 26-25 50 0 78l21 22h19c10 0 25-3 34-6zm1246-54 20-20v-50l-20-20-20-20h-50l-20 20-20 20v53l17 19 16 18h57l20-20zm-1350-20c0-6-6-19-12-31l-13-20 33-27c57-47 36-59-27-14-38 25-53 52-31 52 6 0 10 6 10 13 0 14 20 37 32 37 4 0 8-5 8-10zm1431-82c10-13 18-30 19-39 0-9 9-24 20-34l21-19-3-25-3-25-34-23c-19-13-40-23-47-23-25 0-15 20 21 41l35 21v14c0 8-6 17-14 20l-14 5-31-15c-59-31-72-11-16 24l35 22v14c0 8-6 17-14 20l-13 5-36-21-35-21-8 12-7 12 14 8c8 4 28 17 44 28 39 25 43 25 66-1zm-1499-21-3-16 30-16 30-15 6 10c9 15 25 12 25-5v-14l-18-10-19-10-35 19-35 19-12-12-12-12-5 23c-4 12-10 22-15 22s-9 7-9 15v15l25-6 25-6v24l13-5 12-4-3-16zm-55-84c-2-10-8-26-12-35l-7-18h10c5 0 17 11 26 25l16 25h19c10 0 24-6 30-14l12-14-15-36c-23-55-47-47-26 8l10 26h-8c-5 0-18-11-30-25-25-28-44-32-61-11l-12 14 15 36 15 36h23l-5-17zm689 451-16-15 10-20 11-19h48l6 20 7 21-12 14c-16 19-35 19-54-1zm454-79-12-14 4-18 3-18h60l3 18 4 18-12 14c-7 8-18 15-25 15s-18-7-25-15zm-847-100c-3-9-3-18 0-22 4-3 13-3 22 0l15 6v31h-31l-6-15zm482-101c-32-16-75-53-75-64 0-3 26-4 58-2l58 4 37-10 37-10v14c0 24-28 71-45 78-25 9-37 7-70-10zm-130-84-7-11 7-26c3-14 13-36 21-48l15-24 30-10 30-10-6 9c-4 6-12 10-19 10h-14l-16 34c-9 19-16 43-16 54 0 12-4 23-9 27l-10 5-6-10zm378-11-31-9-25-30-25-29-7-40-6-39 15-31c9-17 25-35 35-41l20-10h101v19l-17-6-16-6 8 14 9 14-17-14-17-13-15 12-15 12 7 12 6 11-8-7-8-8-14 11c-7 6-13 20-13 30v19h24l-11 11-11 11 10 24 11 24h16c9 0 39-18 66-40 28-22 54-40 59-40h9l-19 23-19 22 33-29 32-30v69l-20 32c-21 35-41 48-85 56l-30 5-32-9zm-540-30c-34-22-73-76-73-102v-16l51 50 50 49 26 6 26 7-18 13c-24 18-24 18-62-7zm667-160v-10l10 6c6 3 10 8 10 11 0 2-4 4-10 4-5 0-10-5-10-11zm-35-19-6-10 15 6c18 7 21 14 7 14-6 0-13-4-16-10zm-371-25c-3-14-4-32 0-40l5-15h31v80h-30l-6-25zm-421-55-21-9v-77l-1-78 14-33 14-33h32l-11 21-12 21-1 69-2 69h-7c-5 0-8-5-8-12v-11l-6 6-7 7 13 15 12 15 9-6 9-5v10c0 10 4 9 58-3l32-8 16-30 15-29-5-32-6-32 11 22 11 22-6 36-7 35-37 24c-20 13-48 26-62 29l-25 5-22-8zm800-9-43-20-20-33c-24-39-25-59-5-97l14-29 44-21c24-12 50-21 58-20h14l-22 9-23 9 6 18 6 18-10-14-9-13-5 8c-3 5-4 17-3 27l3 17h-18v61l8-5c5-3 21 6 37 20 15 13 34 24 41 24h14l6-26 7-25-7-45c-3-24-9-56-12-70l-7-27 29 7c16 4 35 12 42 18l13 11-5 12-4 13 15-2 15-1 9 22 8 22-22 28-23 28 4 23 4 23 16-12c9-7 3 2-14 20l-32 33-43 4-44 5-42-20zm152-29c-3-3-11 0-18 7l-12 12 18-7c10-3 15-9 12-12zm140-57c0-44-3-102-7-130l-8-50 11 35c6 19 17 42 25 51l14 16v74l-12-7-11-7 6 37 6 36-9-5-8-5-4 17c-2 10-3-18-3-62zm-1181 9-7-25 11-32 10-32 1 58c1 61-5 73-15 31zm1056 1c0-8 5-15 10-15 6 0 10 7 10 15s-4 15-10 15c-5 0-10-7-10-15zm-550-10-12-15 6-15 5-15h19c11 0 25 7 32 15l12 15-12 15c-16 19-34 19-50 0zm-165-5c-3-5-3-14 0-20l6-10h68l7 11 7 11-14 9c-8 5-26 9-41 9h-27l-6-10zm308 3c-7-2-13-11-13-19v-14h80v40l-27-1c-16 0-34-3-40-6zm-477-98-5-15h9c5 0 11 4 15 9l5 10-9 5-9 6-6-15zm338-39c-3-8-4-25-2-38l3-23 18-3 17-3v81h-15c-9 0-18-6-21-14zm-342-66-32-20-10-26c-15-39-12-66 12-104l21-35 5 13 4 13 14-12 14-11-11 30-10 31 4 28 4 28 2-38 1-37 34-37 34-37 28 13 29 13-22 15c-13 9-23 20-23 26s-19 31-42 54l-42 43h12c7 0 15-6 18-14s13-17 22-21l16-6-17 19c-9 10-17 24-17 31v12l44-3 44-3-9-16c-10-20-2-30 17-22l14 5-7 11-6 10 13-8 13-8-17-13-18-12 20-11 19-10 7 6c3 3 6 19 6 34v27l-26 31-26 31H495l-33-20zm576 4-27-14-12-40-12-40 11-38 12-38 25-24 24-23 48-4 48-4 25 13c13 7 35 29 47 47l23 34v64l-22 28-21 27-33 14-33 14h-38l-38-1-27-15zm169-38c8-8-54-92-83-111-52-34-74-25-74 29v29l26 34 25 33 51-4c27-3 52-7 55-10zm219-9c-8-33-78-139-127-192-23-25-68-62-99-84l-58-38-74-26c-40-14-85-28-100-32l-28-5v-15c0-17 17-20 22-4l4 11 12-15 13-15-13 1c-7 0-35-1-61-1l-48-2 3-47 3-48 69 2c38 2 70 4 72 5 1 2 5 24 9 50l7 48h-32v15c0 8 5 15 10 15 6 0 10-4 10-10 0-5 5-10 11-10h11l-6 15-5 15h29v-15c0-8-4-15-9-15h-9l5-47c3-27 6-50 8-51 2-2 19 2 39 9l35 13-2 10-2 11 14-3 14-3-6 22-6 22 11 20 10 20-28-7-44-11-16-5v40h13c7 0 13-4 13-10 0-5 4-10 10-10h9l-4 13-5 12 73 34 72 34 65 67 65 66 26 50c15 27 29 66 32 87l6 37h-9c-4 0-10-10-14-23zm1-49-5-13-1 19c-1 11 2 17 5 13 3-3 4-12 1-19zm-687-28c-16-17-34-46-40-65l-12-35 12-36 12-36 32-19 31-19h105l29 27c16 16 33 39 36 52l7 24-18-8c-11-4-51-10-89-12l-71-5-13 16-13 16h21l-5 13-5 13 21 24 21 25 51 1 51 2 19-21 19-22-15 32c-9 17-26 39-38 47l-22 16h-98l-28-30zm-190 10c8-6 24-15 35-21l20-10-25 20c-14 11-29 21-35 21h-10l15-10zm882-50-13-29 3-28 4-28 12 43c7 24 16 50 19 58l5 14h-8c-5 0-15-13-22-30zM490 260c0-5 5-10 10-10 6 0 10 5 10 10 0 6-4 10-10 10-5 0-10-4-10-10zm37-13c-4-10-7-43-7-72v-54l38-10c20-5 52-12 70-16l33-7-3 54-3 53-57 19-57 18-3 17-4 16-7-18zm-104-52c3-32 7-58 9-60 2-1 18-5 36-8l33-7-3 63-3 62-39 3-39 3 6-56zm-245 34-18-10V79l23 7c12 4 32 10 44 15l21 8-13 52c-8 29-20 58-27 65l-13 13-17-10zm511-70c-1-13-2-36-3-51l-3-28 11-1c6 0 31-2 56-4l45-4-22 11-23 11v38l12-7 11-7-6 19-7 19 15-19 15-20-13-9-12-9 15 5 15 5-2 11-3 11h13c7 0 18-5 24-11l10-10 5 19 5 19-56 13c-31 6-66 14-78 17l-23 5-1-23zm171 11c0-5 5-10 10-10 6 0 10 5 10 10 0 6-4 10-10 10-5 0-10-4-10-10zm40 0c0-5 5-10 10-10 6 0 10 5 10 10 0 6-4 10-10 10-5 0-10-4-10-10zm-400-70c0-5 5-10 11-10h10l-6 10c-3 6-8 10-11 10-2 0-4-4-4-10zm65-10-6-10h10c6 0 11 5 11 10 0 6-2 10-4 10-3 0-8-4-11-10zM205 70c3-5 8-10 11-10 2 0 4 5 4 10 0 6-5 10-11 10h-10l6-10zm-30-10-6-10h10c6 0 11 5 11 10 0 6-2 10-4 10-3 0-8-4-11-10zm840-20-6-10h10c6 0 11 5 11 10 0 6-2 10-4 10-3 0-8-4-11-10zM895 30l-6-10h10c6 0 11 5 11 10 0 6-2 10-4 10-3 0-8-4-11-10zM232 1358c-14-14-16-38-4-38 5 0 16 8 25 18l17 19-7 6c-9 10-17 9-31-5zm1225-45c-4-3-7-17-7-29v-23l20-6 21-7 14 12c8 7 15 20 15 30v18l-16 6c-20 8-39 8-47-1z"/></g><g fill="#0a1b24" transform="matrix(.1 0 0 -.1 0 169)"><path d="M700 1193c0-18 35-83 44-83 3 0-2 12-10 28-7 15-14 37-14 50v22h-20v-17zm320-45-20-33v-91l20-22c12-12 26-22 32-22h11l-18 20-18 20v79l21 35c19 32 19 46 0 46-4 0-17-15-28-32zm80 1c14-11 34-24 45-30l20-10-35 31c-19 16-39 30-45 30-5 0 1-9 15-21zM817 984c-4-4-7-23-7-41v-35l13 4 12 5 3 27 4 28-9 9-9 9-7-6zm385-77-34-10-28-28-27-28-6-28-5-27 8-20c4-12 18-30 31-41l22-20-8 14c-4 8-10 30-12 51l-4 37 26 31 26 31 39 17c66 29 45 45-28 21zm-802-1c0-2 13-6 29-8l30-4-5 8c-5 8-54 12-54 4zm890-114c0-26-4-62-9-80l-10-32h15c9 0 24 5 35 11l20 10-16 25-15 24h9c4 0 15-7 22-17l14-16 5 29 6 29-26 32c-14 18-31 33-37 33h-13v-48zm-490 24-12-16 6-16 6-15 22 3 23 3v50l-16 3-16 3-13-15zm147-3-18-5 4-11 4-12 37-3 38-3-4 18-3 18-20 2c-11 0-28-1-38-4zm-307-18v-16l38 3 37 3v20l-37 3-38 3v-16zm175-118c-4-8-5-26-3-39l3-23 10 2c6 1 11 14 13 29l4 26-11 11-10 10-6-16zm-335-58c-24-9-59-46-60-61 0-5 6-8 14-8s17-6 20-12l6-13-3 20-4 21 12 10c23 22 55 34 91 34h38l24-22 25-23-12 22c-6 13-20 27-31 33-23 12-87 12-120-1zm575 2c-11-5-29-18-39-30l-19-21v-44l1-43 16-31c9-17 25-36 36-42l20-11 43 25c23 14 61 44 85 67l43 43-3 15c-4 22-16 16-51-31l-33-43-48-29-48-30-15 19-15 20 5 54 4 54 29 24 29 23h27c15 0 38-4 52-10 39-14 31-1-9 16-38 15-79 17-110 5zm370-62c-4-6-5-12-2-15 2-3 7 2 10 11 7 17 1 20-8 4zm-669-60c-34-26-56-70-56-108v-30l10-6 10-6-1 8c-4 14 13 67 29 91 27 41 108 67 138 45 5-5 1 0-9 10l-19 17h-75l-27-21zm342-106c7-3 16-2 19 1 4 3-2 6-13 5l-19-1 13-5z"/></g></g></svg>